<svg width="48" height="48" viewBox="0 0 40 40" fill="none" xmlns="http://www.w3.org/2000/svg">
    <g clip-path="url(#clip0)">
        <path d="M0.598145 29.116L3.37189 29.7856C3.43201 29.8 3.49335 29.8074 3.555 29.8074H19.3881C19.8197 29.8074 20.1694 29.4566 20.1694 29.0246V7.94519C20.1694 7.51314 19.8197 7.16241 19.3881 7.16241C18.9566 7.16241 18.6069 7.51314 18.6069 7.94519V20.1776H17.8568C16.3507 20.1776 14.8483 19.8413 13.4836 19.2035L12.8186 7.89933C12.793 7.46788 12.4222 7.13795 11.9925 7.16394C11.5619 7.18932 11.2332 7.55992 11.2589 7.99137L11.918 19.1946L6.51521 21.4304C6.36292 21.4934 6.20606 21.5405 6.04646 21.5717C6.04402 21.5723 6.04188 21.5726 6.03944 21.5729C5.88746 21.6022 5.73243 21.6172 5.57557 21.6172C5.57435 21.6172 5.57313 21.6172 5.57191 21.6172L4.3744 21.6157C4.37256 21.6157 4.37073 21.6157 4.3686 21.6157C2.65168 21.6157 1.11542 22.7052 0.545045 24.3285L0.0442505 25.754C0.0146485 25.8384 0.000915533 25.9262 0.000915533 26.0139C0.000610352 26.0139 0.000305176 26.0139 0 26.0139V28.3552C0 28.717 0.247193 29.0313 0.598145 29.116ZM3.64777 28.2418L1.5625 27.7385V27.0263L3.30048 27.4795C3.36457 27.4963 3.43079 27.5046 3.49732 27.5046H18.6069V28.2418H3.64777ZM2.01874 24.8483C2.36939 23.8506 3.3133 23.1809 4.3686 23.1809H4.37226L5.56977 23.1828H5.57557C5.68818 23.1828 5.79987 23.177 5.91126 23.1678L7.128 24.3872C7.28059 24.5398 7.48048 24.6162 7.68037 24.6162C7.88026 24.6162 8.08046 24.5398 8.23274 24.3872C8.53792 24.0814 8.53792 23.5858 8.23274 23.28L7.62086 22.6666L8.5962 22.263L9.8221 23.4913C9.97469 23.6442 10.1746 23.7206 10.3745 23.7206C10.5744 23.7206 10.7742 23.6442 10.9268 23.4913C11.232 23.1858 11.232 22.6902 10.9268 22.3844L10.1599 21.616L10.8936 21.3124L12.1057 22.5269C12.2583 22.6798 12.4582 22.7562 12.6581 22.7562C12.858 22.7562 13.0579 22.6798 13.2105 22.5269C13.5156 22.2214 13.5156 21.7258 13.2105 21.42L12.4573 20.6654L12.6999 20.5648C14.303 21.3365 16.0779 21.7432 17.8568 21.7432H18.6069V25.939H3.59711L1.80023 25.4706L2.01874 24.8483Z" fill="#3A0F49"/>
        <path d="M21.2916 29.3145C21.3081 29.4022 21.3398 29.4854 21.3835 29.5612C21.3835 29.5612 21.3831 29.5615 21.3828 29.5615L22.5514 31.5891C22.6936 31.8362 22.9542 31.9808 23.2279 31.9808C23.3015 31.9808 23.3759 31.9701 23.4492 31.9487L26.1854 31.1387C26.2443 31.1213 26.3014 31.0968 26.3545 31.0659L38.983 23.7604C39.4532 23.4886 39.7895 23.0495 39.9299 22.5242C40.0703 21.9989 39.9983 21.45 39.727 20.9791L39.2033 20.0703L36.3609 15.1379L32.4504 4.61933C32.2999 4.21418 31.8501 4.00809 31.4457 4.15915C31.0414 4.30989 30.8357 4.7606 30.9861 5.16575L34.6891 15.1254L33.935 15.5614C32.6564 16.3011 31.2196 16.7591 29.7505 16.9004L25.6248 7.62661C25.449 7.23186 24.9873 7.0542 24.5933 7.23033C24.1993 7.40645 24.022 7.86909 24.1978 8.26415L28.3567 17.6128L24.738 22.3285C24.6382 22.4581 24.5271 22.5768 24.4056 22.6832C24.4023 22.6856 24.3992 22.6881 24.3962 22.6908C24.2784 22.7926 24.1511 22.8838 24.0144 22.9623L22.9765 23.561C21.4863 24.4203 20.6974 26.1357 21.0142 27.829L21.2916 29.3145ZM38.4208 22.119C38.3882 22.2404 38.3107 22.3419 38.2017 22.4049L25.6538 29.6637L23.5966 30.2725L23.2414 29.6557L24.9723 29.1775C25.0364 29.1594 25.0981 29.1338 25.1554 29.1007L38.2408 21.531L38.3738 21.7619C38.4367 21.8707 38.4532 21.9976 38.4208 22.119ZM23.7556 24.9181L24.7935 24.3194C24.893 24.2622 24.9888 24.2004 25.0822 24.1356L26.7442 24.5817C26.8119 24.6001 26.88 24.6086 26.9468 24.6086C27.292 24.6086 27.6075 24.3781 27.7012 24.0283C27.8129 23.6109 27.5654 23.1816 27.1485 23.0697L26.3124 22.8452L26.956 22.0068L28.6305 22.4563C28.6982 22.4746 28.7663 22.4835 28.8331 22.4835C29.178 22.4835 29.4938 22.2526 29.5872 21.9028C29.6989 21.4855 29.4517 21.0562 29.0348 20.9442L27.9872 20.6629L28.4712 20.0327L30.1271 20.4773C30.1948 20.4954 30.2629 20.5042 30.3297 20.5042C30.6745 20.5042 30.9904 20.2734 31.0838 19.9236C31.1955 19.5062 30.9483 19.0769 30.5314 18.965L29.5024 18.6889L29.6626 18.4803C31.436 18.3458 33.1758 17.8085 34.7166 16.9172L35.366 16.5414L37.4598 20.1752L24.4609 27.6948L22.6713 28.1892L22.5498 27.5407C22.3551 26.4998 22.8398 25.4461 23.7556 24.9181Z" fill="#3A0F49"/>
        <path d="M8.48939 33.0645H0.781251C0.349732 33.0645 0 33.4152 0 33.8472C0 34.2796 0.349732 34.63 0.781251 34.63H8.48939C8.92091 34.63 9.27064 34.2796 9.27064 33.8472C9.27064 33.4152 8.92091 33.0645 8.48939 33.0645Z" fill="#3A0F49"/>
        <path d="M12.4216 33.0645C12.2162 33.0645 12.0148 33.1482 11.8693 33.2938C11.724 33.4393 11.6404 33.6411 11.6404 33.8472C11.6404 34.053 11.724 34.2551 11.8693 34.4007C12.0148 34.5462 12.2162 34.63 12.4216 34.63C12.6273 34.63 12.8287 34.5462 12.974 34.4007C13.1193 34.2551 13.2029 34.053 13.2029 33.8472C13.2029 33.6411 13.1193 33.4393 12.974 33.2938C12.8287 33.1482 12.6273 33.0645 12.4216 33.0645Z" fill="#3A0F49"/>
        <path d="M39.2152 31.2592H31.507C31.0755 31.2592 30.7258 31.6099 30.7258 32.0419C30.7258 32.4743 31.0755 32.8247 31.507 32.8247H39.2152C39.6467 32.8247 39.9964 32.4743 39.9964 32.0419C39.9964 31.6099 39.6467 31.2592 39.2152 31.2592Z" fill="#3A0F49"/>
        <path d="M27.7079 34.3952H19.9998C19.5682 34.3952 19.2185 34.7459 19.2185 35.178C19.2185 35.6103 19.5682 35.9608 19.9998 35.9608H27.7079C28.1394 35.9608 28.4891 35.6103 28.4891 35.178C28.4891 34.7459 28.1394 34.3952 27.7079 34.3952Z" fill="#3A0F49"/>
    </g>
    <defs>
        <clipPath id="clip0">
            <rect width="40" height="40" fill="white"/>
        </clipPath>
    </defs>
</svg>
